<svg width="633" height="156" viewBox="0 0 633 156" fill="none" xmlns="http://www.w3.org/2000/svg">
<path fill-rule="evenodd" clip-rule="evenodd" d="M327.349 79.8596C335.891 79.8596 340.884 73.5516 340.884 66.3246C340.884 59.0966 335.891 52.7896 327.349 52.7896C318.808 52.7896 313.551 59.0966 313.551 66.3246C313.551 73.5516 318.808 79.8596 327.349 79.8596ZM323.407 31.7646C333.526 31.7646 340.753 36.4946 343.512 41.8826L344.826 33.0786H365.851V99.5706H344.826L343.512 90.7666C340.753 96.1536 333.526 100.885 323.407 100.885C304.353 100.885 291.212 85.3786 291.212 66.3246C291.212 47.2706 304.353 31.7646 323.407 31.7646Z" fill="white"/>
<path fill-rule="evenodd" clip-rule="evenodd" d="M414.368 52.7896C405.827 52.7896 400.834 59.0966 400.834 66.3246C400.834 73.5516 405.827 79.8596 414.368 79.8596C422.91 79.8596 428.166 73.5516 428.166 66.3246C428.166 59.0966 422.91 52.7896 414.368 52.7896ZM418.31 100.885C408.192 100.885 400.965 96.1536 398.205 90.7666L396.891 99.5706H375.866V1.01559H398.205V41.8826C400.965 36.4956 408.192 31.7646 418.31 31.7646C437.365 31.7646 450.505 47.2706 450.505 66.3246C450.505 85.3786 437.365 100.885 418.31 100.885Z" fill="white"/>
<path fill-rule="evenodd" clip-rule="evenodd" d="M456.886 15.47C456.886 9.557 461.485 4.958 467.398 4.958C473.312 4.958 477.911 9.557 477.911 15.47C477.911 21.384 473.312 25.983 467.398 25.983C461.485 25.983 456.886 21.384 456.886 15.47ZM456.229 99.571H478.568V33.079H456.229V99.571Z" fill="white"/>
<path fill-rule="evenodd" clip-rule="evenodd" d="M556.902 59.8862V99.5702H534.563V70.6612C534.563 56.6002 530.883 52.7892 523.656 52.7892C517.348 52.7892 509.858 56.0752 509.858 69.3472V99.5702H487.519V33.0782H508.544L509.858 41.0942C516.428 35.5752 524.181 31.7642 532.854 31.7642C549.674 31.7642 556.902 42.4082 556.902 59.8862Z" fill="white"/>
<path fill-rule="evenodd" clip-rule="evenodd" d="M610.227 58.0462C609.964 54.6292 605.89 51.4762 599.32 51.4762C592.75 51.4762 588.676 54.6292 588.414 58.0462H610.227ZM632.566 73.1582H588.414C588.676 76.3122 591.435 81.1742 600.634 81.1742C605.89 81.1742 609.833 78.8082 612.198 75.7852L631.646 77.7572C630.332 86.6932 619.951 100.885 600.503 100.885C579.346 100.885 566.074 84.5892 566.074 65.9302C566.074 47.5342 578.821 31.7642 599.32 31.7642C619.951 31.7642 632.566 47.9282 632.566 67.3752V73.1582Z" fill="white"/>
<mask id="mask0" mask-type="alpha" maskUnits="userSpaceOnUse" x="0" y="1" width="75" height="100">
<path fill-rule="evenodd" clip-rule="evenodd" d="M0 1.01559H74.6388V100.885H0V1.01559Z" fill="white"/>
</mask>
<g mask="url(#mask0)">
<path fill-rule="evenodd" clip-rule="evenodd" d="M36.1368 79.8596C44.6778 79.8596 49.6718 73.5516 49.6718 66.3246C49.6718 59.0966 44.6778 52.7896 36.1368 52.7896C27.5948 52.7896 22.3388 59.0966 22.3388 66.3246C22.3388 73.5516 27.5948 79.8596 36.1368 79.8596ZM32.1948 31.7646C42.3128 31.7646 49.5398 36.4946 52.2998 41.8826V1.01559H74.6388V99.5706H53.6138L52.2998 90.7666C49.5398 96.1536 42.3128 100.885 32.1948 100.885C13.1408 100.885 -0.000244141 85.3786 -0.000244141 66.3246C-0.000244141 47.2706 13.1408 31.7646 32.1948 31.7646Z" fill="white"/>
</g>
<path fill-rule="evenodd" clip-rule="evenodd" d="M86.6254 15.47C86.6254 9.557 91.2244 4.958 97.1374 4.958C103.051 4.958 107.65 9.557 107.65 15.47C107.65 21.384 103.051 25.983 97.1374 25.983C91.2244 25.983 86.6254 21.384 86.6254 15.47ZM85.9684 99.571H108.307V33.079H85.9684V99.571Z" fill="white"/>
<path fill-rule="evenodd" clip-rule="evenodd" d="M160.096 58.0462C159.833 54.6292 155.759 51.4762 149.189 51.4762C142.619 51.4762 138.545 54.6292 138.283 58.0462H160.096ZM182.435 73.1582H138.283C138.545 76.3122 141.305 81.1742 150.503 81.1742C155.759 81.1742 159.702 78.8082 162.067 75.7852L181.515 77.7572C180.201 86.6932 169.82 100.885 150.372 100.885C129.215 100.885 115.943 84.5892 115.943 65.9302C115.943 47.5342 128.69 31.7642 149.189 31.7642C169.82 31.7642 182.435 47.9282 182.435 67.3752V73.1582Z" fill="white"/>
<path fill-rule="evenodd" clip-rule="evenodd" d="M42.1879 128.414V155.165H35.7829V139.755L28.7739 150.794H26.4379L19.4319 139.755V155.165H13.0269V128.414H19.4319L27.6069 140.961L35.7829 128.414H42.1879Z" fill="white"/>
<path fill-rule="evenodd" clip-rule="evenodd" d="M69.8124 155.541C62.6514 155.541 58.5824 151.773 58.5824 143.108V128.414H64.9894V143.108C64.9894 147.968 66.4574 149.513 69.8124 149.513C73.1654 149.513 74.6354 147.968 74.6354 143.108V128.414H81.0404V143.108C81.0404 151.773 76.9704 155.541 69.8124 155.541Z" fill="white"/>
<path fill-rule="evenodd" clip-rule="evenodd" d="M114.383 149.136V155.164H97.0562V128.413H103.461V149.136H114.383Z" fill="white"/>
<path fill-rule="evenodd" clip-rule="evenodd" d="M145.094 134.442H139.068V155.165H132.661V134.442H126.632V128.414H145.094V134.442Z" fill="white"/>
<path fill-rule="evenodd" clip-rule="evenodd" d="M160.355 155.165H166.762V128.414H160.355V155.165Z" fill="white"/>
<path fill-rule="evenodd" clip-rule="evenodd" d="M188.43 134.442V139.114H196.718V145.143H188.43V155.165H182.023V128.414H197.848V134.442H188.43Z" fill="white"/>
<path fill-rule="evenodd" clip-rule="evenodd" d="M224.34 155.541C217.18 155.541 213.11 151.773 213.11 143.108V128.414H219.517V143.108C219.517 147.968 220.985 149.513 224.34 149.513C227.693 149.513 229.163 147.968 229.163 143.108V128.414H235.568V143.108C235.568 151.773 231.498 155.541 224.34 155.541Z" fill="white"/>
<path fill-rule="evenodd" clip-rule="evenodd" d="M275.583 128.414V155.165H269.178L257.613 139.077V155.165H251.208V128.414H257.613L269.178 144.502V128.414H275.583Z" fill="white"/>
<path fill-rule="evenodd" clip-rule="evenodd" d="M304.07 140.206L314.432 155.164H306.897L299.812 145.029L297.628 147.516V155.164H291.221V128.414H297.628V138.135L306.18 128.414H314.432L304.07 140.206Z" fill="white"/>
<path fill-rule="evenodd" clip-rule="evenodd" d="M342.879 134.442H336.853V155.165H330.446V134.442H324.417V128.414H342.879V134.442Z" fill="white"/>
<path fill-rule="evenodd" clip-rule="evenodd" d="M355.88 155.165H362.287V128.414H355.88V155.165Z" fill="white"/>
<path fill-rule="evenodd" clip-rule="evenodd" d="M396.386 141.79C396.386 137.57 393.446 134.065 389.039 134.065C384.63 134.065 381.693 137.57 381.693 141.79C381.693 146.01 384.63 149.513 389.039 149.513C393.446 149.513 396.386 146.01 396.386 141.79ZM375.288 141.79C375.288 134.141 381.39 128.037 389.039 128.037C396.687 128.037 402.791 134.141 402.791 141.79C402.791 149.437 396.687 155.541 389.039 155.541C381.39 155.541 375.288 149.437 375.288 141.79Z" fill="white"/>
<path fill-rule="evenodd" clip-rule="evenodd" d="M440.171 128.414V155.165H433.766L422.201 139.077V155.165H415.796V128.414H422.201L433.766 144.502V128.414H440.171Z" fill="white"/>
<path fill-rule="evenodd" clip-rule="evenodd" d="M461.088 146.235C461.088 148.458 462.482 149.513 464.289 149.513C465.984 149.513 466.74 148.684 466.74 147.855C466.74 146.575 465.307 146.01 462.519 144.314C456.265 140.508 455.248 138.323 455.248 135.234C455.248 130.939 458.865 128.037 463.536 128.037C468.963 128.037 472.391 132.107 472.391 137.268H465.984C465.984 135.083 465.006 134.066 463.536 134.066C462.519 134.066 461.653 134.593 461.653 135.535C461.653 136.628 462.406 137.193 464.893 138.624C470.43 141.827 473.145 144.164 473.145 148.119C473.145 152.98 468.963 155.542 464.289 155.542C457.733 155.542 454.683 150.607 454.683 146.235H461.088Z" fill="white"/>
<path fill-rule="evenodd" clip-rule="evenodd" d="M494.058 141.45H498.389C500.5 141.45 502.082 140.132 502.082 137.947C502.082 135.762 500.5 134.442 498.389 134.442H494.058V141.45ZM497.223 147.478H494.058V155.165H487.651V128.414H498.389C503.589 128.414 508.487 131.993 508.487 137.947C508.487 141.752 506.491 144.615 503.664 146.16L508.864 155.165H501.669L497.223 147.478Z" fill="white"/>
<path fill-rule="evenodd" clip-rule="evenodd" d="M535.582 144.125L532.907 136.665L530.231 144.125H535.582ZM537.764 150.153H528.047L526.238 155.165H519.605L529.251 128.414H536.561L546.204 155.165H539.573L537.764 150.153Z" fill="white"/>
<path fill-rule="evenodd" clip-rule="evenodd" d="M569.678 155.541C562.52 155.541 558.45 151.773 558.45 143.108V128.414H564.855V143.108C564.855 147.968 566.325 149.513 569.678 149.513C573.033 149.513 574.501 147.968 574.501 143.108V128.414H580.908V143.108C580.908 151.773 576.838 155.541 569.678 155.541Z" fill="white"/>
<path fill-rule="evenodd" clip-rule="evenodd" d="M626.464 128.414V155.165H620.059V139.755L613.05 150.794H610.714L603.708 139.755V155.165H597.303V128.414H603.708L611.883 140.961L620.059 128.414H626.464Z" fill="white"/>
</svg>
